<?xml version="1.0" standalone="no"?>
<!DOCTYPE svg PUBLIC "-//W3C//DTD SVG 20010904//EN"
 "http://www.w3.org/TR/2001/REC-SVG-20010904/DTD/svg10.dtd">
<svg version="1.0" xmlns="http://www.w3.org/2000/svg"
 width="920.000000pt" height="512.000000pt" viewBox="0 0 920.000000 512.000000"
 preserveAspectRatio="xMidYMid meet">
<metadata>
Created by potrace 1.16, written by Peter Selinger 2001-2019
</metadata>
<g transform="translate(0.000000,512.000000) scale(0.100000,-0.100000)"
fill="#000000" stroke="none">
<path d="M4030 5114 c-355 -42 -562 -116 -737 -264 -81 -68 -137 -135 -153
-185 -14 -41 0 -79 63 -167 24 -35 250 -400 502 -813 252 -412 474 -770 493
-793 47 -59 116 -109 176 -127 95 -29 172 18 217 132 l23 58 -2 895 c-2 492
-5 924 -8 960 -12 148 -98 240 -267 286 -53 14 -243 26 -307 18z"/>
<path d="M5783 3526 c-22 -7 -54 -23 -71 -34 -16 -12 -152 -168 -303 -346
-323 -383 -352 -429 -353 -554 -1 -64 4 -86 24 -127 43 -84 159 -145 274 -145
68 0 1007 175 1045 194 36 19 74 68 90 115 17 51 13 178 -7 237 -59 170 -395
591 -513 643 -60 27 -135 34 -186 17z"/>
<path d="M2882 2810 c-56 -29 -121 -104 -152 -176 l-25 -59 -3 -419 c-3 -479
-3 -484 76 -568 53 -57 135 -92 197 -85 45 5 978 333 1045 367 59 30 151 124
178 182 59 126 -10 282 -156 357 -96 49 -1031 413 -1072 417 -34 4 -56 0 -88
-16z"/>
<path d="M5203 1780 c-63 -13 -81 -26 -94 -71 -15 -50 -1 -135 36 -216 14 -31
143 -272 287 -535 297 -544 277 -518 409 -526 142 -8 201 26 295 171 224 343
322 528 331 625 10 111 -31 208 -112 264 -30 20 -154 60 -476 152 -517 148
-564 158 -676 136z"/>
<path d="M4375 1589 c-113 -45 -154 -85 -517 -519 -191 -228 -357 -435 -370
-460 -51 -103 -14 -278 72 -341 27 -20 683 -252 744 -263 90 -17 239 52 298
139 35 51 36 66 43 395 2 151 8 401 11 555 7 307 1 364 -42 432 -54 83 -133
104 -239 62z"/>
</g>
</svg>
